<?xml version="1.0" encoding="utf-8"?>
<!-- Generator: Adobe Illustrator 16.0.0, SVG Export Plug-In . SVG Version: 6.00 Build 0)  -->
<!DOCTYPE svg PUBLIC "-//W3C//DTD SVG 1.1//EN" "http://www.w3.org/Graphics/SVG/1.1/DTD/svg11.dtd">
<svg version="1.1" id="Layer_1" xmlns="http://www.w3.org/2000/svg" xmlns:xlink="http://www.w3.org/1999/xlink" x="0px" y="0px"
	 width="198.43px" height="547.09px" viewBox="0 0 198.43 547.09" enable-background="new 0 0 198.43 547.09" xml:space="preserve">
<g>
	<path fill="#F87F2D" d="M185.3,265.465c0,3.861-3.131,6.988-6.99,6.988H27.259c-6.108,0-11.799-5.854-14.663-10.463l5.606-235.599
		c0-3.861-0.033-10.825,3.828-10.825l153.488-1.346c3.689,2.051,9.781,8.92,9.781,13.939V265.465z"/>
	<g>
		<path fill="#F87F2D" d="M122.851,1062.931c-53.249,0-100.937-10.713-141-31.99c-56.732-30.131-96.868-80.627-113.017-142.178
			c-13.229-50.43-9.029-102.76,11.821-147.35c22.11-47.289,61.587-81.172,111.15-95.406c58.708-16.863,158.594-55.535,167.971-125.1
			c3.938-29.227-10.646-52.35-22.262-59.428c-33.36-20.346-30.003-70.146-29.841-72.256l9.683,0.73
			c-0.049,0.691-2.974,46.045,25.213,63.232c16.186,9.871,31.084,37.414,26.826,69.018c-3.371,25.023-17.617,48.422-42.34,69.547
			c-29.836,25.498-74.441,46.893-132.569,63.586c-46.828,13.451-84.13,45.479-105.037,90.188
			c-19.892,42.541-23.876,92.535-11.223,140.775c27.042,103.09,136.067,205.064,354.319,153.18l2.242,9.445
			C195.458,1058.276,157.946,1062.931,122.851,1062.931z M117.356,389.954l-4.843-0.365l4.843,0.361
			C117.356,389.95,117.356,389.952,117.356,389.954L117.356,389.954z"/>
	</g>
	<g>
		<path fill="#F87F2D" d="M126.083,318.278v-31.619c0,0,0.486-3.984,3.742-3.984c3.26,0,3.379,3.863,3.379,3.863v31.74H126.083z"/>
		<path fill="#F87F2D" d="M91.578,318.278v-31.619c0,0,0.481-3.984,3.742-3.984c3.255,0,3.375,3.863,3.375,3.863v31.74H91.578z"/>
		<path fill="#F87F2D" d="M144.548,317.312v16.654c0,0,0.482,2.775-4.463,7.967c-4.949,5.189-11.104,13.998-11.104,13.998
			s-6.398,7.484-6.398,17.26c0,9.773,0,16.773,0,16.773s0.24,3.621-10.069,3.621c-10.309,0-10.064-3.621-10.064-3.621s0-7,0-16.773
			c0-9.775-6.394-17.26-6.394-17.26s-6.155-8.809-11.102-13.998c-4.95-5.191-4.464-7.967-4.464-7.967v-16.654H144.548z"/>
	</g>
</g>
<g>
	<path fill="#FBBE43" d="M179.208,259.457c0,3.857-3.129,6.988-6.988,6.988H19.104c-3.86,0-6.989-3.131-6.989-6.988V20.384
		c0-3.862,3.129-6.991,6.989-6.991H172.22c3.859,0,6.988,3.129,6.988,6.991V259.457z"/>
	<g>
		<path fill="#FBBE43" d="M97.772,1033.698c-53.255,0.002-100.937-10.711-141.005-31.992
			c-56.734-30.131-96.871-80.625-113.02-142.178c-13.226-50.43-9.028-102.758,11.822-147.35
			c22.113-47.287,61.583-81.168,111.148-95.402c58.712-16.863,158.605-55.537,167.98-125.102
			c3.941-29.227-10.643-52.348-22.257-59.428c-33.365-20.344-30.003-70.145-29.847-72.254l9.683,0.73l-4.838-0.365l4.838,0.361
			c-0.03,0.457-3.045,46.002,25.216,63.236c16.188,9.871,31.088,37.41,26.828,69.016c-3.371,25.023-17.617,48.422-42.341,69.545
			c-29.842,25.502-74.45,46.895-132.582,63.59c-46.825,13.449-84.13,45.477-105.034,90.186
			c-19.893,42.539-23.879,92.533-11.226,140.771c27.043,103.094,136.07,205.066,354.333,153.186l2.242,9.445
			C170.388,1029.044,132.866,1033.698,97.772,1033.698z"/>
	</g>
	<path fill="#FBBE43" d="M119.474,288.081v16.654c0,0,0.484,2.777-4.464,7.965c-4.947,5.191-11.104,14-11.104,14
		s-6.398,7.482-6.398,17.258c0,9.773,0,16.775,0,16.775s0.241,3.621-10.069,3.621c-10.312,0-10.072-3.621-10.072-3.621
		s0-7.002,0-16.775c0-9.775-6.395-17.258-6.395-17.258s-6.155-8.809-11.102-14c-4.951-5.188-4.467-7.965-4.467-7.965v-16.654
		H119.474z"/>
</g>
<g>
	<circle fill="#F4F4F4" cx="95.076" cy="139.342" r="37.405"/>
	<path fill="#F4F4F4" d="M101.008,289.046v-31.622c0,0,0.486-3.982,3.742-3.982c3.26,0,3.381,3.861,3.381,3.861v31.743H101.008z"/>
	<path fill="#F4F4F4" d="M66.494,289.046v-31.622c0,0,0.481-3.982,3.742-3.982c3.256,0,3.378,3.861,3.378,3.861v31.743H66.494z"/>
</g>
<g>
	<circle fill="#333333" cx="78.595" cy="139.342" r="4.903"/>
	<path fill="#333333" d="M116.462,139.342c0,2.708-2.198,4.903-4.905,4.903c-2.705,0-4.902-2.195-4.902-4.903
		c0-2.707,2.197-4.903,4.902-4.903C114.264,134.439,116.462,136.635,116.462,139.342z"/>
</g>
</svg>
