<svg id="450084db-1829-4884-a735-c7ffffd8a5ec" data-name="Layer 1" xmlns="http://www.w3.org/2000/svg" viewBox="0 0 440.37 443.97"><defs><style>.bb375d6c-9755-4356-aa82-1615e9e715fe{fill:#253641;}.\37 cbed2c4-3077-4020-8476-07949b03ff5d{fill:#5c6972;}.\37 41a33b1-bbb9-4080-b7ce-7990eca9fe15{fill:#59666f;}.\36 1c6c930-f4be-4a44-a307-b39239185a34{fill:#939ba1;}.\31 9dc1c4f-a707-415c-866c-043574a3700a{fill:#959da3;}.\30 628b314-0c3a-41a3-a0f9-503a84afef73{fill:#90989e;}.beb7ce7c-3c20-4daa-9f89-e098a39cd647{fill:#ccd0d3;}.\39 ea52b4e-6136-4fbe-8e22-a9f1d1a93301{fill:#c5cacd;}.\32 a2cc581-25e0-4d4a-a196-28df1f9ebe1c{fill:#9bcded;}.c9d1417c-54a7-4d6d-b4d0-5540d21ffff3{fill:#85b7e1;}.\31 56ddac1-fdd6-4096-bb5b-b57ee3af5b8a{fill:#151e26;}.\32 b3ff2cd-ec4d-4aa0-a3f0-09c2d28ab9f4{fill:#18232c;}.\37 f1febec-35a5-42a5-8cbe-6609f7e7fdc1{fill:#121a21;}.\38 606ba37-b6db-4d19-900e-948da51f825d{fill:#10171d;}.\32 52e0635-6e09-46b9-9d42-5e0647f6261d{fill:#0d1318;}.\37 3e1bdf1-bbb6-434d-87f3-1ef2c4020f16{fill:#0b1014;}.\38 cecaf47-e9ff-49c6-970d-468c347d8dd2{fill:#090d10;}.\30 ca3e4a4-d471-48b7-90b4-244d9ae1ab9a{fill:#7daacf;}.\33 de69831-64d0-4133-8ec9-59d842cf1735{fill:#070a0c;}.ea801464-8d31-4908-93a4-0a39604443df{fill:#5aa953;}.\39 13455c2-9eee-453f-acf4-a834d5e29aac{fill:#499a41;}.\32 22508e3-a14a-42ea-9b7f-8dfc5ba97536{fill:#1a2630;}.\30 6903dbf-2f41-4647-a513-a3c172286a81{fill:#1c2934;}.ca0808ff-cd58-4317-8b45-9c25c65ad306{fill:#1e2c37;}.\31 359ee5c-e53a-40a7-9b7e-2967f7779beb{fill:#90b4cc;}.cc002247-278d-4159-b25e-c33c68718777{fill:#82a6c4;}.de41caae-613e-4a6b-9ce2-5c868e24ef86{fill:#84a7c4;}.\34 e9dded1-db09-4b96-8b14-d1f8d8b792c2{fill:#91b4cb;}.\38 b51c8f3-2193-4c2f-9112-813bed7726fc{fill:#93b6cd;}.f9e9bbf9-0904-4dea-8a41-2307b8b2bacb{fill:#92b4ca;}.\37 9449724-183c-4cae-a67e-ed1eb4e4b59c{fill:#90b4cb;}.\37 6242f25-6e8b-4470-82dd-3ce8c38b851c{fill:#92b4cb;}.\34 763d18e-0d1a-4ceb-bffc-083ad9e21cc9{fill:#4d89c0;}.\35 d156476-309b-4494-9534-9d95310ec77d{fill:#7dabd0;}.\38 16bce24-c815-44e6-a43f-6290d873c2d6{fill:#5185b4;}.\31 45ffaec-eaf2-4583-82c8-9ccdfec6de75{fill:#7dabcf;}.\37 ad9a837-2303-4b6e-80b2-61dcb681cc1d{fill:#cbfec6;}</style></defs><title>imageVtexID2</title><path class="bb375d6c-9755-4356-aa82-1615e9e715fe" d="M769.76,802.24h1.92a8.32,8.32,0,0,0,2.18.12h3c11.6-.08,23,1.57,34.34,3.85a221.73,221.73,0,0,1,106.38,54.65A223.28,223.28,0,0,1,951,899.78a229.3,229.3,0,0,1,16.45,28.69,2.47,2.47,0,0,1,.45,2.15c-0.7.52-1.22,0-1.71-.35-3.22-2.22-6.47-4.4-9.69-6.63-1.9-1.32-3.86-2.56-5.74-3.9q-9-6.19-18.09-12.39c-3.13-2.15-6.22-4.35-9.43-6.37-2.65-1.63-5.09-3.57-7.66-5.32-4.18-2.86-8.39-5.68-12.54-8.58a23.88,23.88,0,0,1-4.29-2.81c-4.89-3.58-10-6.83-14.94-10.34a4.21,4.21,0,0,1-1.35-.74c-5.36-3.92-10.89-7.6-16.39-11.33-5.92-4.07-11.83-8.15-17.77-12.18-2.21-1.42-4.32-3-6.5-4.44s-4.09-2.9-6.23-4.22c-2.85-1.61-5.35-3.75-8.07-5.56-3.35-2.23-6.66-4.53-10-6.82a7.75,7.75,0,0,0-4.35-1.46c-1.76-.77-3.39-1.77-5.12-2.6a72.27,72.27,0,0,0-21.56-6.52,63.35,63.35,0,0,0-10.61-.69,5.69,5.69,0,0,1-1.43-.08h-0.39c-2.19.24-4.38,0.11-6.58,0.28a79.93,79.93,0,0,0-16,2.89,68.68,68.68,0,0,0-23.19,11.73,79.22,79.22,0,0,0-14.44,14.63,103,103,0,0,0-17.59,36,146.17,146.17,0,0,0-4.05,21.89,218.23,218.23,0,0,0-.84,29.69c0.18,7.81.9,15.61,1.79,23.39A392.71,392.71,0,0,0,700.4,1000a108.85,108.85,0,0,0,8.83,25.17A77.23,77.23,0,0,0,722,1043.35c2.66,2.82,5.07,5.86,7.55,8.84,0.69,0.83,1.44,1.61,2.11,2.45a4.24,4.24,0,0,1,.81,4.26,174.31,174.31,0,0,1-6.26,16.34,101.09,101.09,0,0,1-10.64,18.6c-5.08,7-11.13,12.85-19.08,16.54a41.47,41.47,0,0,1-13.71,3.67c-2.52.24-5,.16-7.55,0.19a143.42,143.42,0,0,0-31.73,3.42c-9.44,2.25-18.22,6-25.78,12.23a54,54,0,0,0-13.34,16.18,107.27,107.27,0,0,0-7.43,18.69c-0.21.67-.29,1.45-1.16,1.67a2,2,0,0,1-1.21-.92c-3.73-4.44-7.15-9.12-10.53-13.82a151.56,151.56,0,0,1-13.16-22.26,238.31,238.31,0,0,1-10.32-24.64,227.81,227.81,0,0,1-8.6-31.4,208.18,208.18,0,0,1-3.06-20.6c-0.43-4.33-.47-8.68-0.57-13q0-.69,0-1.39t0-1.62a8.48,8.48,0,0,0-.12-2.2v-10.8a8.34,8.34,0,0,0,.12-2.18q0-.8,0-1.61t0-1.37a157.55,157.55,0,0,1,1.49-20.76,227,227,0,0,1,20-66.68A223.22,223.22,0,0,1,586.5,902a218.92,218.92,0,0,1,18.06-23.3c3.57-4,7.18-7.95,11-11.69a234.13,234.13,0,0,1,30.17-25A230,230,0,0,1,670,827.46a227.12,227.12,0,0,1,29.33-12.77A224.68,224.68,0,0,1,730.81,806q10.29-2.05,20.73-3.09c4.34-.43,8.68-0.47,13-0.57h3A8.46,8.46,0,0,0,769.76,802.24Z" transform="translate(-548.24 -802.24)"/><path class="7cbed2c4-3077-4020-8476-07949b03ff5d" d="M548.46,1021.58c0,0.73.24,1.49-.22,2.18v-2.16C548.3,1021.47,548.37,1021.46,548.46,1021.58Z" transform="translate(-548.24 -802.24)"/><path class="7cbed2c4-3077-4020-8476-07949b03ff5d" d="M548.24,1034.56c0.45,0.69.17,1.45,0.21,2.18q-0.12.17-.21,0v-2.16Z" transform="translate(-548.24 -802.24)"/><path class="7cbed2c4-3077-4020-8476-07949b03ff5d" d="M769.76,802.24c-0.69.45-1.45,0.17-2.18,0.22q-0.13-.08-0.08-0.15a0.13,0.13,0,0,1,.1-0.06h2.16Z" transform="translate(-548.24 -802.24)"/><path class="741a33b1-bbb9-4080-b7ce-7990eca9fe15" d="M773.87,802.44a3.8,3.8,0,0,1-2.19-.2h2.16q0.13,0,.1.12A0.1,0.1,0,0,1,773.87,802.44Z" transform="translate(-548.24 -802.24)"/><path class="61c6c930-f4be-4a44-a307-b39239185a34" d="M767.6,802.24a0.86,0.86,0,0,1,0,.22H765.9q-0.13-.08-0.08-0.14a0.13,0.13,0,0,1,.1-0.06h1.68Z" transform="translate(-548.24 -802.24)"/><path class="61c6c930-f4be-4a44-a307-b39239185a34" d="M548.46,1021.58l-0.22,0v-1.68q0.09-.2.21,0v1.68Z" transform="translate(-548.24 -802.24)"/><path class="19dc1c4f-a707-415c-866c-043574a3700a" d="M548.24,1036.72l0.21,0v1.67q-0.12.19-.21,0v-1.68Z" transform="translate(-548.24 -802.24)"/><path class="0628b314-0c3a-41a3-a0f9-503a84afef73" d="M773.87,802.44l0-.2h1.68c0.09,0,.12.08,0.1,0.12a0.11,0.11,0,0,1-.08.07h-1.67Z" transform="translate(-548.24 -802.24)"/><path class="beb7ce7c-3c20-4daa-9f89-e098a39cd647" d="M765.92,802.24a1.08,1.08,0,0,1,0,.21h-1.43a0.55,0.55,0,0,0,0-.21h1.44Z" transform="translate(-548.24 -802.24)"/><path class="9ea52b4e-6136-4fbe-8e22-a9f1d1a93301" d="M775.54,802.44q0-.1,0-0.2H777q0,0.1,0,.2h-1.43Z" transform="translate(-548.24 -802.24)"/><path class="beb7ce7c-3c20-4daa-9f89-e098a39cd647" d="M548.24,1038.4h0.21v1.44h-0.21v-1.44Z" transform="translate(-548.24 -802.24)"/><path class="beb7ce7c-3c20-4daa-9f89-e098a39cd647" d="M548.45,1019.9l-0.21,0v-1.44h0.21v1.43Z" transform="translate(-548.24 -802.24)"/><path class="2a2cc581-25e0-4d4a-a196-28df1f9ebe1c" d="M769.53,1246.2h-7.47a26.55,26.55,0,0,0-4.26,0c-0.92.17-1.79-.28-2.7-0.2a5.84,5.84,0,0,0-2.12,0,7.38,7.38,0,0,1-1.74-.23,5.18,5.18,0,0,0-1.86,0l-1.48-.21a2.62,2.62,0,0,0-1.4,0l-1.24-.22a3,3,0,0,0-1.38,0l-1-.2a1.88,1.88,0,0,0-1.16,0c-3.74-.49-7.48-1-11.21-1.57-5.82-.93-11.57-2.12-17.29-3.52a221,221,0,0,1-84.72-41.65,221.34,221.34,0,0,1-21.82-19.79c-3.76-3.91-7.46-7.89-10.82-12.16,1.06-2.46,1.7-5.06,2.59-7.57,2.43-6.88,5.29-13.54,9.69-19.44,7.71-10.35,18-16.94,30.22-20.71a114.45,114.45,0,0,1,25.34-4.34c5.39-.41,10.78-0.36,16.18-0.49a40.86,40.86,0,0,0,27.61-11.39c6.32-5.87,11-13,15-20.51a159.15,159.15,0,0,0,9.59-23.09,3.72,3.72,0,0,0-.89-4c-4.53-5.22-9.14-10.39-13.53-15.72-6.77-8.22-11.27-17.66-14.57-27.73a204,204,0,0,1-6.1-25.61c-2-10.4-3.57-20.87-4.66-31.4A264.55,264.55,0,0,1,691.05,913c0.85-15.91,3.75-31.38,10.28-46a94.86,94.86,0,0,1,19.21-28.6,70.45,70.45,0,0,1,37.7-20.06,75,75,0,0,1,15.85-1.43,1.42,1.42,0,0,1,.36,1.11c0,0.44,0,.88,0,1.32q0,124.16,0,248.32a12.73,12.73,0,0,1-.06,1.91,1,1,0,0,1-.19.38,1.43,1.43,0,0,1-1,.37c-7.11.31-14.22,0.72-21.26-.73a28.41,28.41,0,0,1-12.26-5.47c-0.22-.17-0.46-0.32-0.66-0.52a5.61,5.61,0,0,1-.73-0.79,97.1,97.1,0,0,0,6.65,8.16c3.41,3.69,6.56,7.64,10.57,10.76a37.31,37.31,0,0,0,18.16,7.56c0.75,0.1,1.55.12,1.91,1,0.13,3.59,0,7.18,0,10.77a13.37,13.37,0,0,0,.2,2.62c0,0.52-.06,1,0,1.55,0.16,4.9-.15,9.79-0.32,14.68-0.12,3.3,0,6.61-.25,9.9a10.63,10.63,0,0,0-.31,2.84q0,10.22,0,20.44a12,12,0,0,0,.19,2.37c0,0.56-.05,1.12,0,1.68,0.15,4-.18,7.91-0.3,11.86-0.16,5.3-.56,10.59-0.94,15.89q-0.42,5.85-.72,11.7c-0.22,4.46-.2,8.94-0.7,13.38-0.62,5.63-1,11.28-1.35,16.93-0.23,3.34-.39,6.69-0.6,10-0.17,2.67,0,5.35-.42,8A1.78,1.78,0,0,1,769.53,1246.2Z" transform="translate(-548.24 -802.24)"/><path class="c9d1417c-54a7-4d6d-b4d0-5540d21ffff3" d="M774.32,816.89a73.49,73.49,0,0,1,33.23,6.89c2,0.95,4,2,5.92,3.13a8.57,8.57,0,0,1,2.71,1.18,81,81,0,0,1,11.42,8.85,61.44,61.44,0,0,1,6.5,7.16,78.61,78.61,0,0,1,8.53,12.23,9.28,9.28,0,0,1,.75,1.49,76.36,76.36,0,0,1,5,10A118.86,118.86,0,0,1,853,880.95c0.25,0.84.33,1.72,0.64,2.54a65.37,65.37,0,0,1,2,8.26,144.36,144.36,0,0,1,2.48,18.36c0.07,1.07.21,2.14,0.22,3.22a4.1,4.1,0,0,0,.17,2.25c0.17,0.87-.17,1.75.06,2.62,0,1.59.17,3.19,0.16,4.76,0,3.53,0,7.08-.35,10.61-0.12,1.39-.16,2.78-0.23,4.17-0.17,3.58-.57,7.13-0.83,10.7a5.28,5.28,0,0,0-.22,1.61,6.14,6.14,0,0,1-.08,1.2,3.39,3.39,0,0,0-.16,1.5,7.07,7.07,0,0,1-.08,1.36,3.76,3.76,0,0,0-.16,1.29,5.47,5.47,0,0,1-.09,1.14,3.53,3.53,0,0,0-.15,1.28,5.66,5.66,0,0,1-.09,1.15,3.79,3.79,0,0,0-.14,1.33c-0.14,1.69-.4,3.36-0.55,5.05a4.6,4.6,0,0,0-.19,1.35c-0.07.92-.23,1.82-0.38,2.72-0.47,3.6-1,7.19-1.55,10.77a216.79,216.79,0,0,1-8.2,34.32,71.89,71.89,0,0,1-10.5,20.63c-4.55,6-9.48,11.64-14.3,17.39a28.71,28.71,0,0,0-2,2.56c-2.85,2.27-5.05,5.21-7.85,7.54-4.8,4-10.1,6.87-16.4,7.6a6.52,6.52,0,0,1-1.68,0c-2.07-.17-4.15-0.05-6.22-0.07-3.55,0-7.1,0-10.65,0a1.8,1.8,0,0,1-1.47-.32,4.84,4.84,0,0,1-.07-1.43q0-125.07,0-250.15A2.91,2.91,0,0,1,774.32,816.89Z" transform="translate(-548.24 -802.24)"/><path class="156ddac1-fdd6-4096-bb5b-b57ee3af5b8a" d="M923.36,900.64a21.2,21.2,0,0,1,3.83,2.41q11.9,8.13,23.77,16.31c0.52,0.71.05,1.29-.28,1.87Q945.87,929.6,941,938q-20.52,35.58-41.06,71.14-14.26,24.72-28.55,49.43a12.45,12.45,0,0,1-1,1.88c-1.16.65-2.48,0.55-3.73,0.74a78.43,78.43,0,0,0-37,15.82,4.69,4.69,0,0,1-2.44,1.43,1.37,1.37,0,0,1-.9-0.93c-0.89-1.89-1.93-3.74-2-5.91,2.36-3.89,4.6-7.86,6.88-11.8q14.6-25.29,29.2-50.57,12.71-22,25.42-44l25.66-44.45c3.64-6.3,7.3-12.59,10.91-18.91A1.88,1.88,0,0,1,923.36,900.64Z" transform="translate(-548.24 -802.24)"/><path class="2b3ff2cd-ec4d-4aa0-a3f0-09c2d28ab9f4" d="M870.32,1060.19c-0.07-1.19.76-2,1.28-2.91q7.47-13,15-26,8.28-14.3,16.56-28.6,9.28-16.08,18.51-32.18T940.4,938.1q5.1-8.81,10.22-17.61a2.06,2.06,0,0,0,.35-1.13q7.55,5.15,15.1,10.29a3.82,3.82,0,0,0,1.76,1,64.06,64.06,0,0,1,3.38,7.71,56.72,56.72,0,0,0,2.26,5.51,10.25,10.25,0,0,0,.77,2,2.91,2.91,0,0,1-.58,1.67q-10.55,18.28-21.11,36.56-10.06,17.45-20.14,34.89-12.72,22-25.44,44c-0.45.78-.79,1.7-1.84,1.92a5.54,5.54,0,0,1-2.2-.5,71.9,71.9,0,0,0-18.2-3.71,106.19,106.19,0,0,0-13.13,0A1.2,1.2,0,0,1,870.32,1060.19Z" transform="translate(-548.24 -802.24)"/><path class="7f1febec-35a5-42a5-8cbe-6609f7e7fdc1" d="M923.36,900.64a76.52,76.52,0,0,1-4.29,7.74c-3.43,6-6.93,12-10.4,18.05l-9.29,16.07-10.41,18-9,15.66L870.22,993q-8.34,14.41-16.67,28.81-8.77,15.19-17.5,30.41l-10.77,18.67a0.88,0.88,0,0,1-1.73-.31c-1.86-4.68-3.57-9.42-5.41-14.11a1.61,1.61,0,0,1,.06-1.5,3.44,3.44,0,0,1,1-1.63c4.93-5.82,9.9-11.61,14.6-17.62,5.87-7.49,9.55-16.08,12.32-25.1a240,240,0,0,0,8-37c0.19-1.38.44-2.75,0.66-4.12a0.63,0.63,0,0,0,.44-0.37c6.63-11.64,13.37-23.21,20.06-34.82q13.21-22.91,26.45-45.81c0.39-.67.65-1.5,1.55-1.73,2.91,2,5.83,3.89,8.72,5.88C915.74,895.27,919.54,898,923.36,900.64Z" transform="translate(-548.24 -802.24)"/><path class="8606ba37-b6db-4d19-900e-948da51f825d" d="M903.19,886.74q-5.55,9.58-11.1,19.17-5.18,9-10.34,18-4.64,8-9.3,16.06-5.18,9-10.35,17.95c-2.17,3.77-4.33,7.55-6.54,11.3-0.12.21-.26,1.2-0.88,0.3a9.94,9.94,0,0,1,.31-2.83,7.75,7.75,0,0,1,.19-1.2,32,32,0,0,1,.54-5.28,6,6,0,0,1,.18-1.2l0.07-1.2a5.23,5.23,0,0,1,.17-1.2l0.06-1.2a11,11,0,0,1,.16-1.26l0.08-1.38a8.58,8.58,0,0,1,.18-1.44l0-1.19c0.2-.48-0.06-1,0.18-1.48q0.38-5.13.77-10.25a155.87,155.87,0,0,0,.49-19.35c0-.28,0-0.56,0-0.84A107.19,107.19,0,0,1,863.78,908q9.54-16.62,19.15-33.19a3.21,3.21,0,0,1,1.06-1.27l18.19,12.56C902.51,886.33,902.85,886.53,903.19,886.74Z" transform="translate(-548.24 -802.24)"/><path class="252e0635-6e09-46b9-9d42-5e0647f6261d" d="M884,873.55a45.75,45.75,0,0,1-3.56,6.5c-3.45,6.08-7,12.11-10.46,18.16-3.1,5.36-6.18,10.72-9.32,16.05-0.78,1.33-1.26,2.86-2.52,3.89l-0.07-2.6c-0.28-.71,0-1.47-0.18-2.18a159.88,159.88,0,0,0-4.67-30c1-2.13,2.29-4.12,3.46-6.16,2.75-4.78,5.49-9.57,8.27-14.33a2.25,2.25,0,0,1,1.28-1.35c2.93,1.69,5.62,3.74,8.42,5.64C877.78,869.29,880.88,871.42,884,873.55Z" transform="translate(-548.24 -802.24)"/><path class="73e1bdf1-bbb6-434d-87f3-1ef2c4020f16" d="M866.23,861.54l-8.64,15c-1.09,1.9-2.17,3.8-3.27,5.69a1.86,1.86,0,0,1-1.11,1.17A116.47,116.47,0,0,0,843,857.92c1.52-2.61,3.09-5.19,4.55-7.83a3.13,3.13,0,0,1,.87-0.79l16.75,11.39A12.87,12.87,0,0,1,866.23,861.54Z" transform="translate(-548.24 -802.24)"/><path class="8cecaf47-e9ff-49c6-970d-468c347d8dd2" d="M848.48,849.3c-1.38,2.77-3,5.4-4.59,8.06a0.89,0.89,0,0,1-.84.56c-1.32-2.16-2.62-4.34-4-6.48-1.59-2.52-3.52-4.8-5.31-7.17a6.36,6.36,0,0,1,2-3.61c3,1.74,5.66,3.84,8.51,5.73C845.69,847.34,847.08,848.33,848.48,849.3Z" transform="translate(-548.24 -802.24)"/><path class="0ca3e4a4-d471-48b7-90b4-244d9ae1ab9a" d="M774.32,816.89q0,126,0,252c0,0.32,0,.64,0,1a0.18,0.18,0,0,1-.26,0c0-.28,0-0.56,0-0.84q0-126,0-252.09h0.24Z" transform="translate(-548.24 -802.24)"/><path class="3de69831-64d0-4133-8ec9-59d842cf1735" d="M835.76,840.67a10.91,10.91,0,0,1-2,3.61c-1.76-1.94-3.43-4-5.29-5.81A81,81,0,0,0,815.19,828c-0.57-.36-1.15-0.71-1.73-1.06a6.46,6.46,0,0,1,4.1,1.22q8.61,5.93,17.19,11.91C835.08,840.25,835.42,840.46,835.76,840.67Z" transform="translate(-548.24 -802.24)"/><path class="ea801464-8d31-4908-93a4-0a39604443df" d="M870.32,1060.19a95.71,95.71,0,0,1,11.73-.2,74.08,74.08,0,0,1,21.89,4.23c0.45,0.16.92,0.25,1.38,0.37a3.94,3.94,0,0,1,1.5.15,78.44,78.44,0,0,1,23.24,14A80,80,0,0,1,947.51,1100a70.16,70.16,0,0,1,4.4,9.16,56.69,56.69,0,0,1,2.36,6.53,1.4,1.4,0,0,1,0,1.16c-0.64.51-1.14,0-1.61-.28-1.76-1.11-3.53-2.2-5.23-3.4-3.7-2.59-7.65-4.81-11.26-7.54A4.3,4.3,0,0,0,935,1105a3.36,3.36,0,0,1-.93-0.75c-3.77-4-8.63-4.15-12.78-.58-9,7.77-18.11,15.47-27.17,23.21l-23.89,20.4-10.12,8.65c-1.28,1.09-1.84,1-2.82-.34-5.51-7.65-11-15.3-16.51-23a9.42,9.42,0,0,0-5.65-4,7.75,7.75,0,0,0-6.3,1.15c-2.7,1.79-5.37,3.64-7.88,5.67-3.73,3-4.2,7.87-1.2,12q4.95,6.86,9.87,13.73,8.95,12.4,17.85,24.83a8.78,8.78,0,0,0,5.3,3.65,2.47,2.47,0,0,1,1.4.63,4,4,0,0,0,1.95,1.1c4,1.89,7.93,3.81,11.89,5.72,7.45,3.59,14.88,7.26,22.37,10.76,3,1.42,6.29,2.35,9.44,3.51,1.24,0.46,2.48.9,3.71,1.37,0.48,0.18,1.13.28,1.15,1a65,65,0,0,1-12.33,3.36,77.68,77.68,0,0,1-16.94,1.22c-0.4,0-.8,0-1.2,0-1.36.61-2.77,0.26-4.13,0.12a79.78,79.78,0,0,1-61.92-40.91,80.35,80.35,0,0,1-9.36-29.14,76.43,76.43,0,0,1-.37-14.72,78.81,78.81,0,0,1,14.37-40.61A75.15,75.15,0,0,1,824.68,1080c0.75-.66,1.22-1.76,2.46-1.74a85.36,85.36,0,0,1,17.35-11A80.27,80.27,0,0,1,870.32,1060.19Z" transform="translate(-548.24 -802.24)"/><path class="c9d1417c-54a7-4d6d-b4d0-5540d21ffff3" d="M827.14,1078.23a90.48,90.48,0,0,0-11,11.32,76.83,76.83,0,0,0-16.51,37.76c-3.2,23,2.27,43.75,16.89,61.84,12.46,15.41,28.66,24.68,48.15,28.22,3.15,0.57,6.34.78,9.51,1.09a138.75,138.75,0,0,1-12.93,6.72,217.74,217.74,0,0,1-34.75,13,214.15,214.15,0,0,1-25.47,5.5c-4.48.68-9,1.27-13.48,1.68-2.49.23-5,.37-7.48,0.61a8.6,8.6,0,0,0-2.35,0,19.23,19.23,0,0,1-2.68.22,25.39,25.39,0,0,0-4.28,0h-1.22c0.26-4.3.3-8.6,0.67-12.89,0.26-3,.32-6,0.53-9,0.27-3.77.6-7.54,0.9-11.31,0.18-2.18.41-4.36,0.51-6.55,0.21-4.34.28-8.69,0.51-13,0.25-4.73.59-9.46,1-14.19,0.39-5.13.57-10.26,0.77-15.4,0.11-2.79.09-5.59,0.19-8.38a1.42,1.42,0,0,0,.11-0.82q0-12.12,0-24.25a1.53,1.53,0,0,0-.1-0.82,7.89,7.89,0,0,0,.21-1.16c0.1-2.94.1-5.88,0.18-8.82,0.15-5.32.48-10.65,0.32-16a15.42,15.42,0,0,0,.1-3.2c0-3.42,0-6.84,0-10.27a1,1,0,0,1,1.29-.53,83.66,83.66,0,0,0,9.45.32c4.28,0.07,8.52-.38,12.77-0.67a58.58,58.58,0,0,0,10.77-1.44,28,28,0,0,0,15.29-9.7c0.39-.48.73-1.24,1.62-0.91Z" transform="translate(-548.24 -802.24)"/><path class="913455c2-9eee-453f-acf4-a834d5e29aac" d="M904.64,1213.82c-3.09-1.4-6.32-2.44-9.52-3.55a90.71,90.71,0,0,1-9.36-4c-6.23-3-12.42-6-18.63-9.06-4.13-2-8.27-4-12.41-6-0.32-.16-0.63-0.34-0.94-0.52a0.13,0.13,0,0,1,0-.11,1.48,1.48,0,0,1,.22-0.1,1.19,1.19,0,0,1,1.22-.28,8.58,8.58,0,0,0,6.57-2c6.45-5.43,12.85-10.93,19.27-16.41l23.82-20.32q12.77-10.91,25.54-21.81c2.46-2.11,4.92-4.22,7.4-6.3a9.57,9.57,0,0,0,3.57-5.52,8.1,8.1,0,0,0-1.59-6.78c-1.26-1.66-2.66-3.19-4-4.78a1.83,1.83,0,0,1-.75-1.66,2.49,2.49,0,0,1,1.27.64l16.93,11.12c0.27,0.17.56,0.31,0.84,0.47a1.08,1.08,0,0,1,.94,1.06,75.57,75.57,0,0,1,2.17,10.86,40.73,40.73,0,0,1,.43,8.55c-0.56,1.55-.3,3.17-0.36,4.75a78.11,78.11,0,0,1-20.89,50.74,76.39,76.39,0,0,1-29.91,20.42C905.87,1213.48,905.25,1213.63,904.64,1213.82Z" transform="translate(-548.24 -802.24)"/><path class="222508e3-a14a-42ea-9b7f-8dfc5ba97536" d="M929.8,1079a97.44,97.44,0,0,0-12.3-8.64,101.79,101.79,0,0,0-12.19-5.75,66.09,66.09,0,0,0,4.15-6.85c2.83-4.81,5.58-9.68,8.37-14.52q4.85-8.4,9.71-16.79,8.81-15.23,17.62-30.47,8-13.79,15.87-27.61,6.21-10.79,12.46-21.56a8.81,8.81,0,0,1,.73-0.95,86.76,86.76,0,0,1,3.58,9.89,223.69,223.69,0,0,1,6.92,27c0.07,0.35.07,0.71,0.1,1.07a2.8,2.8,0,0,1-.57,2q-10.27,17.75-20.51,35.52l-22.67,39.26q-5,8.72-10.07,17.45C930.76,1078.53,930.56,1079.15,929.8,1079Z" transform="translate(-548.24 -802.24)"/><path class="06903dbf-2f41-4647-a513-a3c172286a81" d="M929.8,1079a22.79,22.79,0,0,0,2.66-4.37c5.55-9.55,11-19.15,16.56-28.71,4.87-8.43,9.78-16.83,14.65-25.26,4.29-7.42,8.55-14.87,12.84-22.29,2.67-4.63,5.38-9.24,8.06-13.86a4.67,4.67,0,0,0,.26-0.66c0.78,3.21,1.16,6.49,1.64,9.75,0.74,5.09,1.24,10.21,1.59,15.34,0.22,3.23.29,6.46,0.44,9.69a196,196,0,0,1-.38,20,92.54,92.54,0,0,1-1,10.12c-2.35,4.41-4.95,8.67-7.44,13q-13.28,23-26.56,46c-0.38.65-.61,1.55-1.65,1.48a80.6,80.6,0,0,0-12.82-21.13,74,74,0,0,0-7.59-7.82C930.64,1079.84,930.23,1079.4,929.8,1079Z" transform="translate(-548.24 -802.24)"/><path class="ca0808ff-cd58-4317-8b45-9c25c65ad306" d="M951.5,1109.18c1.44-1.39,2.13-3.26,3.11-4.94,5.54-9.52,11-19.09,16.51-28.63q7.4-12.81,14.83-25.59a2.71,2.71,0,0,1,1.2-1.29,74.34,74.34,0,0,1-1,8.3,220.61,220.61,0,0,1-28.54,80.32,2.39,2.39,0,0,1-.4-1.7,77.45,77.45,0,0,0-2.77-17.9,6.48,6.48,0,0,0-.37-0.87A70,70,0,0,0,951.5,1109.18Z" transform="translate(-548.24 -802.24)"/><path class="1359ee5c-e53a-40a7-9b7e-2967f7779beb" d="M757.8,1246.17a10.07,10.07,0,0,1,4.26,0Z" transform="translate(-548.24 -802.24)"/><path class="cc002247-278d-4159-b25e-c33c68718777" d="M770.75,1246.2a9.94,9.94,0,0,1,4.28,0Z" transform="translate(-548.24 -802.24)"/><path class="de41caae-613e-4a6b-9ce2-5c868e24ef86" d="M777.71,1246a3.27,3.27,0,0,1,2.35,0Z" transform="translate(-548.24 -802.24)"/><path class="4e9dded1-db09-4b96-8b14-d1f8d8b792c2" d="M753,1245.95a2.56,2.56,0,0,1,2.12,0Z" transform="translate(-548.24 -802.24)"/><path class="8b51c8f3-2193-4c2f-9112-813bed7726fc" d="M749.38,1245.7a2.08,2.08,0,0,1,1.86,0Z" transform="translate(-548.24 -802.24)"/><path class="f9e9bbf9-0904-4dea-8a41-2307b8b2bacb" d="M746.5,1245.47a1.24,1.24,0,0,1,1.4,0Z" transform="translate(-548.24 -802.24)"/><path class="79449724-183c-4cae-a67e-ed1eb4e4b59c" d="M743.88,1245.21a1.28,1.28,0,0,1,1.38,0Z" transform="translate(-548.24 -802.24)"/><path class="76242f25-6e8b-4470-82dd-3ce8c38b851c" d="M741.7,1245a0.92,0.92,0,0,1,1.16,0Z" transform="translate(-548.24 -802.24)"/><path class="4763d18e-0d1a-4ceb-bffc-083ad9e21cc9" d="M826.59,1077.27c-1.17,1.24-2.33,2.49-3.51,3.71-4.48,4.65-10.13,7-16.35,8-3.53.62-7.12,0.66-10.68,1a141.08,141.08,0,0,1-15.3.41c-1.74,0-3.48-.29-5.22-0.44q-0.14.21-.27,0a42.59,42.59,0,0,1-13-3.54,41.13,41.13,0,0,1-12.84-9.83c-3.41-3.8-6.93-7.51-10-11.59a33.61,33.61,0,0,1-2.24-3.36,10.59,10.59,0,0,1,2.83,2.07,30.76,30.76,0,0,0,15.1,5.85,87.71,87.71,0,0,0,13.62.41c1.71,0,3.42-.21,5.14-0.13,4.75,0.14,9.5,0,14.26.05a36.14,36.14,0,0,0,4.9-.09,28.33,28.33,0,0,0,15.74-6.3,44.59,44.59,0,0,0,7.31-7,9.49,9.49,0,0,1,2.12-1.54c1.23,3.84,2.83,7.54,4.21,11.33,0.64,1.76,1.37,3.48,2.06,5.22Z" transform="translate(-548.24 -802.24)"/><path class="5d156476-309b-4494-9534-9d95310ec77d" d="M774.58,1129.62a1.74,1.74,0,0,1,.22,1.26q0,11.68,0,23.36a1.69,1.69,0,0,1-.23,1.26Q774.57,1142.56,774.58,1129.62Z" transform="translate(-548.24 -802.24)"/><path class="816bce24-c815-44e6-a43f-6290d873c2d6" d="M793,1069.86a1.42,1.42,0,0,1-1,.22H774.79a1.47,1.47,0,0,1-.92-0.18l0.19-.08h0.26Z" transform="translate(-548.24 -802.24)"/><path class="145ffaec-eaf2-4583-82c8-9ccdfec6de75" d="M775.26,1090h0.27q0,6.13,0,12.27a1.9,1.9,0,0,1-.22,1.37Q775.28,1096.84,775.26,1090Z" transform="translate(-548.24 -802.24)"/><path class="8606ba37-b6db-4d19-900e-948da51f825d" d="M857.89,913.37a4.94,4.94,0,0,1,.18,2.18A7.49,7.49,0,0,1,857.89,913.37Z" transform="translate(-548.24 -802.24)"/><path class="7f1febec-35a5-42a5-8cbe-6609f7e7fdc1" d="M856.86,948.59a2.42,2.42,0,0,1-.18,1.48A3.5,3.5,0,0,1,856.86,948.59Z" transform="translate(-548.24 -802.24)"/><path class="7f1febec-35a5-42a5-8cbe-6609f7e7fdc1" d="M856.63,951.26a2.56,2.56,0,0,1-.18,1.44A3,3,0,0,1,856.63,951.26Z" transform="translate(-548.24 -802.24)"/><path class="7f1febec-35a5-42a5-8cbe-6609f7e7fdc1" d="M856.38,954.09a1.93,1.93,0,0,1-.16,1.26A2.57,2.57,0,0,1,856.38,954.09Z" transform="translate(-548.24 -802.24)"/><path class="7f1febec-35a5-42a5-8cbe-6609f7e7fdc1" d="M856.15,956.54a2,2,0,0,1-.17,1.2A2.19,2.19,0,0,1,856.15,956.54Z" transform="translate(-548.24 -802.24)"/><path class="7f1febec-35a5-42a5-8cbe-6609f7e7fdc1" d="M855.91,958.94a1.91,1.91,0,0,1-.18,1.2A2.14,2.14,0,0,1,855.91,958.94Z" transform="translate(-548.24 -802.24)"/><path class="7f1febec-35a5-42a5-8cbe-6609f7e7fdc1" d="M855.2,965.43a1.83,1.83,0,0,1-.19,1.2A2.28,2.28,0,0,1,855.2,965.43Z" transform="translate(-548.24 -802.24)"/><path class="7ad9a837-2303-4b6e-80b2-61dcb681cc1d" d="M935.06,1104.65c1.56,1.87,3.14,3.73,4.69,5.61a8.91,8.91,0,0,1-1.1,13c-6.17,5.33-12.4,10.6-18.6,15.89L873.34,1179c-3.31,2.83-6.7,5.58-9.92,8.51-2.72,2.48-5.71,3.75-9.4,3a3.68,3.68,0,0,0-.66-0.24,9.43,9.43,0,0,1-6.36-4.09q-13.48-18.82-27-37.59a11.44,11.44,0,0,1-2.53-5.22,8.65,8.65,0,0,1,3.29-8.4c2.49-1.94,5.07-3.77,7.69-5.54a8.92,8.92,0,0,1,12.39,2.49q8.46,11.72,16.87,23.47c0.86,1.2.86,1.2,2,.22l56.56-48.29q2.51-2.14,5-4.28c4.27-3.61,9.62-3.17,13.28,1.08C934.7,1104.34,934.89,1104.49,935.06,1104.65Z" transform="translate(-548.24 -802.24)"/></svg>
