<?xml version="1.0" encoding="iso-8859-1"?>
<!-- Generator: Adobe Illustrator 18.0.0, SVG Export Plug-In . SVG Version: 6.00 Build 0)  -->
<!DOCTYPE svg PUBLIC "-//W3C//DTD SVG 1.1//EN" "http://www.w3.org/Graphics/SVG/1.1/DTD/svg11.dtd">
<svg xmlns="http://www.w3.org/2000/svg" xmlns:xlink="http://www.w3.org/1999/xlink" version="1.1" id="Capa_1" x="0px" y="0px" viewBox="0 0 496.124 496.124" style="enable-background:new 0 0 496.124 496.124;" xml:space="preserve" width="150px" height="150px">
<g>
	<path d="M420.001,219.7c3.666,14.313,5.811,29.238,5.811,44.676c0,99.828-81.199,181.024-181.022,181.024   c-99.821,0-181.039-81.195-181.039-181.024c0-99.824,81.218-181.041,181.039-181.041c25.442,0,49.633,5.338,71.623,14.848   l26.912-43.26c-29.949-14.15-63.27-22.307-98.535-22.307c-127.793,0-231.764,103.971-231.764,231.76   c0,127.779,103.971,231.748,231.764,231.748c127.774,0,231.743-103.969,231.743-231.748c0-35.516-8.271-69.062-22.599-99.178   L420.001,219.7z" fill="#4bd268"/>
	<path d="M463.159,6.385c-19.811-12.32-45.882-6.279-58.217,13.533L236.88,289.985l-56.299-80.289   c-13.389-19.104-39.775-23.729-58.879-10.338c-19.1,13.408-23.742,39.756-10.336,58.877l93.002,132.633   c7.93,11.291,20.855,17.996,34.609,17.996c0.379,0,0.777,0,1.157-0.018c14.181-0.396,27.229-7.871,34.72-19.914L476.702,64.6   C489.05,44.766,482.972,18.713,463.159,6.385z" fill="#4bd268"/>
</g>
<g>
</g>
<g>
</g>
<g>
</g>
<g>
</g>
<g>
</g>
<g>
</g>
<g>
</g>
<g>
</g>
<g>
</g>
<g>
</g>
<g>
</g>
<g>
</g>
<g>
</g>
<g>
</g>
<g>
</g>
</svg>
