<?xml version="1.0" encoding="iso-8859-1"?>
<!-- Generator: Adobe Illustrator 18.1.1, SVG Export Plug-In . SVG Version: 6.00 Build 0)  -->
<svg xmlns="http://www.w3.org/2000/svg" xmlns:xlink="http://www.w3.org/1999/xlink" version="1.1" id="Capa_1" x="0px" y="0px" viewBox="0 0 14 14" style="enable-background:new 0 0 14 14;" xml:space="preserve" width="20px" height="20px">
<g>
	<g>
		<g>
			<path d="M11,14H3c-1.654,0-3-1.346-3-3V3c0-1.654,1.346-3,3-3h5c0.553,0,1,0.448,1,1S8.553,2,8,2H3     C2.448,2,2,2.449,2,3v8c0,0.551,0.448,1,1,1h8c0.552,0,1-0.449,1-1V8c0-0.552,0.447-1,1-1s1,0.448,1,1v3     C14,12.654,12.654,14,11,14z" fill="#4bd268"/>
		</g>
	</g>
	<g>
		<g>
			<path d="M8.166,9.833c-0.35,0-0.689-0.139-0.941-0.391L4.557,6.775c-0.52-0.521-0.52-1.365,0-1.885     c0.521-0.521,1.365-0.521,1.887,0L7.86,6.307l3.475-5.455c0.357-0.644,1.17-0.877,1.814-0.519     c0.643,0.358,0.875,1.17,0.518,1.813l-4.334,7C9.13,9.512,8.767,9.761,8.353,9.819C8.289,9.829,8.229,9.833,8.166,9.833z" fill="#4bd268"/>
		</g>
	</g>
</g>
<g>
</g>
<g>
</g>
<g>
</g>
<g>
</g>
<g>
</g>
<g>
</g>
<g>
</g>
<g>
</g>
<g>
</g>
<g>
</g>
<g>
</g>
<g>
</g>
<g>
</g>
<g>
</g>
<g>
</g>
</svg>
