<?xml version="1.0" encoding="iso-8859-1"?>
<!-- Generator: Adobe Illustrator 19.1.0, SVG Export Plug-In . SVG Version: 6.00 Build 0)  -->
<svg xmlns="http://www.w3.org/2000/svg" xmlns:xlink="http://www.w3.org/1999/xlink" version="1.1" id="Capa_1" x="0px" y="0px" viewBox="0 0 476.2 476.2" style="enable-background:new 0 0 476.2 476.2;" xml:space="preserve" width="512px" height="512px">
<g>
	<g>
		<path d="M433.812,19.9c-12.8-12.8-29.8-19.9-48-19.9s-35.1,7.1-48,19.9c-4.7,4.7-4.7,12.3,0,17c4.7,4.7,12.3,4.7,17,0    c8.3-8.3,19.3-12.8,31-12.8s22.7,4.6,31,12.8c17.1,17.1,17.1,44.9,0,62c-0.3,0.3-0.6,0.6-0.8,0.9c-0.3,0.3-0.6,0.5-0.9,0.8    l-18.2,18.2l-101.2-101.1c-4.7-4.7-12.3-4.7-17,0l-155,155c-4.7,4.7-4.7,12.3,0,17c2.3,2.3,5.4,3.5,8.5,3.5s6.1-1.2,8.5-3.5    l146.5-146.6l13.7,13.7l-235.2,235.3c-2.3,2.3-3.5,5.3-3.5,8.5s1.3,6.2,3.5,8.5l7.6,7.6l-33.5,33.4c-2.3,2.3-3.5,5.3-3.5,8.5    s1.3,6.2,3.5,8.5l14.9,14.9l-28.6,28.6c-4.7,4.7-4.7,12.3,0,17c2.3,2.3,5.4,3.5,8.5,3.5s6.1-1.2,8.5-3.5l28.6-28.6l14.9,14.9    c2.3,2.3,5.3,3.5,8.5,3.5s6.2-1.3,8.5-3.5l33.5-33.5l7.6,7.6c2.3,2.3,5.4,3.5,8.5,3.5s6.1-1.2,8.5-3.5l270.4-270.4    c0.3-0.3,0.6-0.6,0.8-0.9c0.3-0.3,0.6-0.5,0.9-0.8C460.212,89.3,460.212,46.3,433.812,19.9z M95.013,388.4l-29.8-29.8l25-25    l14.9,14.9l14.9,14.9L95.013,388.4z M153.113,362.5l-7.6-7.6l0,0l-23.4-23.4l-31-31l226.8-226.7l62,62L153.113,362.5z" fill="#FFFFFF"/>
		<path d="M420.112,452.2h-385.5c-6.6,0-12,5.4-12,12s5.4,12,12,12h385.5c6.6,0,12-5.4,12-12S426.712,452.2,420.112,452.2z" fill="#FFFFFF"/>
	</g>
</g>
<g>
</g>
<g>
</g>
<g>
</g>
<g>
</g>
<g>
</g>
<g>
</g>
<g>
</g>
<g>
</g>
<g>
</g>
<g>
</g>
<g>
</g>
<g>
</g>
<g>
</g>
<g>
</g>
<g>
</g>
</svg>
