<svg id="48480140-9871-4e08-bfde-154ebca22e08" data-name="Layer 1" xmlns="http://www.w3.org/2000/svg" viewBox="0 0 440.37 444.02"><defs><style>.c067ae3c-9c94-47d3-a370-02d083117f07{fill:#253641;}.\31 4b957c2-2d3a-4d30-a054-b13f107f7b3d{fill:#5c6972;}.c2e54097-736c-4fa5-9f69-120698f91b69{fill:#59666f;}.\33 584947f-e04a-4e88-bdf0-856dce90e68a{fill:#939ba1;}.\36 b00b144-5983-4ec0-b749-23a8f67fdcb3{fill:#959da3;}.\34 982c5df-9d3b-4202-b55b-cb3704a5dde0{fill:#90989e;}.\39 52c98ef-f969-452b-9b25-516a14fbb880{fill:#ccd0d3;}.\39 3c7ebbe-25ee-419d-beb2-6e562ebcd258{fill:#c5cacd;}.\37 6f36f54-1bbb-4632-9674-7fb1152526c1{fill:#7ac0f4;}.\32 a18c0bd-f0d5-49e6-ae21-5d271ca6b2b9{fill:#69a8e3;}.\32 237b945-3ef5-48e1-9879-246cb5bcf573{fill:#151e26;}.e78122ee-1374-4655-8e10-bf5afcfc4d59{fill:#18232c;}.e98dacbd-e37a-49bd-aec1-859fec23dd03{fill:#121a21;}.\31 213f7a3-8ab2-42c1-b879-a0d1c677df4a{fill:#10171d;}.\38 bb7a84d-f5ce-4c06-b0be-565465b4a15c{fill:#0d1318;}.cd43420c-69f4-4a82-8ed0-19af398528ce{fill:#0b1014;}.\31 18c7bda-72db-4ae9-88e4-79e54886ffc5{fill:#090d10;}.\31 44ef4c6-6446-48ea-8a47-fb46a5e449ea{fill:#649dd1;}.\30 34ea410-0af9-4776-b736-110217ea8f18{fill:#070a0c;}.\33 a416628-f065-4674-aa24-2019a483c02a{fill:#b9dff6;}.\33 7ed1bae-c2d7-45f2-92d7-5f76e4af328c{fill:#6aa8e3;}.\38 93b0ac8-cce7-4a62-9342-a94be1c4ff9e{fill:#1a2630;}.\33 694182d-ecd6-4d3b-8331-674f58019204{fill:#1c2934;}.\37 90bc620-c676-4526-aff6-eddd35d264a9{fill:#1e2c37;}.\39 b207163-33d9-416a-9fac-012779cbf2b3{fill:#7aadd1;}.\36 3290b4e-60a0-4753-9f26-406f523b4473{fill:#6e9cc5;}.\32 05e3bc3-ecee-4fe7-a78b-32add1fbe8a7{fill:#719ec5;}.f9f4f119-e05b-4e57-95f8-5cec64f758af{fill:#7cadcf;}.\32 224a35a-3091-4042-a232-3a2bfbedb830{fill:#7eafd2;}.\30 ca523c2-4893-4b73-91d3-2d0cf35f29de{fill:#7eadcf;}.b7bc089f-9c51-44c1-b507-37435f085dc4{fill:#8cb5d2;}.eb55c067-5b32-4109-b48a-0f4510af8923{fill:#7aacd0;}.aa38927a-310f-41bc-8e31-abe141577f2a{fill:#8ab5d4;}.\35 b9a63c8-f35b-43fc-8d90-247fdd100573{fill:#4d89c0;}.\32 ccd258a-27ef-4f8b-a73f-5c2fc8b20c83{fill:#649ed2;}.eedf8ec1-82e0-4788-bad6-b000fd68c848{fill:#1f2d39;}</style></defs><title>imageVtexID1</title><path class="c067ae3c-9c94-47d3-a370-02d083117f07" d="M769.76,802.24h1.92a8.32,8.32,0,0,0,2.18.12h3c11.6-.08,23,1.57,34.34,3.85a221.73,221.73,0,0,1,106.38,54.65A223.28,223.28,0,0,1,951,899.78a229.31,229.31,0,0,1,16.45,28.69,2.47,2.47,0,0,1,.45,2.15c-0.69.52-1.22,0-1.71-.35-3.22-2.22-6.47-4.4-9.69-6.63-1.9-1.32-3.86-2.56-5.74-3.9q-9-6.19-18.09-12.39c-3.13-2.15-6.22-4.35-9.43-6.37-2.65-1.63-5.09-3.57-7.66-5.32-4.18-2.86-8.39-5.68-12.54-8.58a23.87,23.87,0,0,1-4.29-2.81c-4.89-3.58-10-6.83-14.94-10.34a4.21,4.21,0,0,1-1.35-.74c-5.36-3.92-10.89-7.6-16.39-11.33-5.92-4.07-11.83-8.15-17.77-12.18-2.21-1.42-4.32-3-6.5-4.44s-4.09-2.9-6.23-4.22c-2.85-1.61-5.35-3.75-8.07-5.56-3.35-2.23-6.66-4.53-10-6.82a7.75,7.75,0,0,0-4.35-1.46c-1.76-.77-3.39-1.77-5.12-2.6a72.27,72.27,0,0,0-21.56-6.52,63.35,63.35,0,0,0-10.61-.69,5.68,5.68,0,0,1-1.43-.08h-0.38c-2.19.24-4.38,0.11-6.58,0.28a79.93,79.93,0,0,0-16,2.89,68.68,68.68,0,0,0-23.19,11.73,79.17,79.17,0,0,0-14.45,14.63,103,103,0,0,0-17.59,36,146.26,146.26,0,0,0-4.05,21.89c-1.13,9.88-1,19.79-.84,29.69,0.12,6.26.68,12.51,1.3,18.74a401.33,401.33,0,0,0,6.56,41.64c2.17,10.52,5.13,20.8,10,30.43a72.16,72.16,0,0,0,10.77,16c4,4.42,7.79,9,11.64,13.54a4.21,4.21,0,0,1,.79,4.36,149.39,149.39,0,0,1-9,22.06,84.58,84.58,0,0,1-12.86,18.86c-6.71,7.24-14.76,12-24.54,13.71a34.42,34.42,0,0,1-6.55.6c-4.4-.09-8.8,0-13.18.27-10.39.67-20.67,2-30.57,5.45a57.22,57.22,0,0,0-24,15.62,59.51,59.51,0,0,0-11.21,18.86c-1.35,3.51-2.61,7-3.67,10.65a1.93,1.93,0,0,1-.8,1.29,1.43,1.43,0,0,1-1.37-.77c-3.29-3.87-6.29-8-9.29-12.05a154,154,0,0,1-14.43-24,228.48,228.48,0,0,1-21-67.85,126.75,126.75,0,0,1-1.54-18c0-1.31-.09-2.63-0.09-3.95q0-.69,0-1.39t0-1.62a8.48,8.48,0,0,0-.12-2.2v-10.8a8.34,8.34,0,0,0,.12-2.18q0-.8,0-1.61t0-1.37a157.55,157.55,0,0,1,1.49-20.76,227,227,0,0,1,20-66.68A223.22,223.22,0,0,1,586.5,902a218.92,218.92,0,0,1,18.06-23.3c3.57-4,7.18-7.95,11-11.69a234.13,234.13,0,0,1,30.17-25A230,230,0,0,1,670,827.46a227.12,227.12,0,0,1,29.33-12.77A224.67,224.67,0,0,1,730.81,806q10.29-2.05,20.73-3.09c4.34-.43,8.68-0.47,13-0.57h3A8.46,8.46,0,0,0,769.76,802.24Z" transform="translate(-548.24 -802.24)"/><path class="14b957c2-2d3a-4d30-a054-b13f107f7b3d" d="M548.46,1021.58c0,0.73.24,1.49-.22,2.18v-2.16C548.3,1021.47,548.37,1021.46,548.46,1021.58Z" transform="translate(-548.24 -802.24)"/><path class="14b957c2-2d3a-4d30-a054-b13f107f7b3d" d="M548.24,1034.56c0.45,0.69.17,1.45,0.21,2.18q-0.12.17-.21,0v-2.16Z" transform="translate(-548.24 -802.24)"/><path class="14b957c2-2d3a-4d30-a054-b13f107f7b3d" d="M769.76,802.24c-0.69.45-1.45,0.17-2.18,0.22q-0.13-.08-0.08-0.15a0.13,0.13,0,0,1,.1-0.06h2.16Z" transform="translate(-548.24 -802.24)"/><path class="c2e54097-736c-4fa5-9f69-120698f91b69" d="M773.87,802.44a3.8,3.8,0,0,1-2.19-.2h2.16q0.13,0,.1.12A0.1,0.1,0,0,1,773.87,802.44Z" transform="translate(-548.24 -802.24)"/><path class="3584947f-e04a-4e88-bdf0-856dce90e68a" d="M767.6,802.24a0.86,0.86,0,0,1,0,.22H765.9q-0.13-.08-0.08-0.14a0.13,0.13,0,0,1,.1-0.06h1.68Z" transform="translate(-548.24 -802.24)"/><path class="3584947f-e04a-4e88-bdf0-856dce90e68a" d="M548.46,1021.58l-0.22,0v-1.68q0.09-.2.21,0v1.68Z" transform="translate(-548.24 -802.24)"/><path class="6b00b144-5983-4ec0-b749-23a8f67fdcb3" d="M548.24,1036.72l0.21,0v1.67q-0.12.19-.21,0v-1.68Z" transform="translate(-548.24 -802.24)"/><path class="4982c5df-9d3b-4202-b55b-cb3704a5dde0" d="M773.87,802.44l0-.2h1.68c0.09,0,.12.08,0.1,0.12a0.11,0.11,0,0,1-.08.07h-1.67Z" transform="translate(-548.24 -802.24)"/><path class="952c98ef-f969-452b-9b25-516a14fbb880" d="M765.92,802.24a1.08,1.08,0,0,1,0,.21h-1.43a0.55,0.55,0,0,0,0-.21h1.44Z" transform="translate(-548.24 -802.24)"/><path class="93c7ebbe-25ee-419d-beb2-6e562ebcd258" d="M775.54,802.44q0-.1,0-0.2H777q0,0.1,0,.2h-1.43Z" transform="translate(-548.24 -802.24)"/><path class="952c98ef-f969-452b-9b25-516a14fbb880" d="M548.24,1038.4h0.21v1.44h-0.21v-1.44Z" transform="translate(-548.24 -802.24)"/><path class="952c98ef-f969-452b-9b25-516a14fbb880" d="M548.45,1019.9l-0.21,0v-1.44h0.21v1.43Z" transform="translate(-548.24 -802.24)"/><path class="76f36f54-1bbb-4632-9674-7fb1152526c1" d="M769.53,1246.2h-7.46c-1.41-.19-2.82,0-4.23-0.09a2.67,2.67,0,0,1-1.27-.11l-1.45,0c-1-.26-2,0.09-2.94-0.19l-0.92-.05c-0.8-.24-1.65.09-2.44-0.19l-0.9,0c-0.63-.25-1.31.08-1.94-0.2l-0.71,0a3.9,3.9,0,0,0-1.39-.07l-1-.16c-0.53-.26-1.13.08-1.66-0.21a9.24,9.24,0,0,1-2.65-.27c-0.38-.25-0.84.05-1.22-0.21a94.42,94.42,0,0,1-9.55-1.39,210,210,0,0,1-29.38-7.25A220.3,220.3,0,0,1,629.49,1199c-6.07-4.77-11.85-9.85-17.42-15.19s-10.59-10.86-15.54-16.62a7.37,7.37,0,0,1-.57-0.9c2.13-6.91,4.38-13.78,7.82-20.18,7.16-13.28,18.17-21.95,32.31-26.83a104.43,104.43,0,0,1,24.63-4.83c6.34-.59,12.69-0.6,19-0.73a40.79,40.79,0,0,0,27.8-11.52c6.26-5.87,10.91-12.93,14.9-20.45a159.5,159.5,0,0,0,9.54-23,3.72,3.72,0,0,0-.85-4c-4.53-5.22-9.14-10.39-13.54-15.72-6.78-8.22-11.28-17.66-14.59-27.73a203.69,203.69,0,0,1-6.13-25.73c-2-10.37-3.55-20.79-4.64-31.29a276.09,276.09,0,0,1-1.44-36.28,146.84,146.84,0,0,1,5.24-36.55c4.44-15.49,11.71-29.44,22.71-41.3a70.7,70.7,0,0,1,42.39-22.39,71.71,71.71,0,0,1,12.89-.93,1.42,1.42,0,0,1,.36,1.11c0,0.52,0,1,0,1.56q0,123.89,0,247.78a20,20,0,0,1,0,2.15,1.27,1.27,0,0,1-1.43.83,123.25,123.25,0,0,1-12.82.22,40,40,0,0,1-14.49-2.9,24.56,24.56,0,0,1-7-4.42A86.36,86.36,0,0,0,745,1071c3.36,3.64,6.46,7.51,10.38,10.61a37.2,37.2,0,0,0,18.34,7.71c0.75,0.1,1.55.12,1.91,1,0.13,3.59,0,7.18.05,10.77a13.38,13.38,0,0,0,.2,2.62c0,0.52-.06,1,0,1.55,0.16,4.9-.15,9.79-0.32,14.68-0.12,3.3,0,6.61-.25,9.9a10.63,10.63,0,0,0-.31,2.84q0,10.22,0,20.44a12,12,0,0,0,.19,2.37c0,0.56-.05,1.12,0,1.68,0.15,4-.16,7.91-0.31,11.86-0.21,5.54-.65,11.06-1.06,16.59-0.24,3.26-.4,6.53-0.58,9.8-0.29,5.3-.28,10.6-0.86,15.89-0.4,3.6-.62,7.23-0.84,10.86-0.32,5.26-.73,10.5-1,15.76a48.15,48.15,0,0,1-.38,7A1.85,1.85,0,0,1,769.53,1246.2Z" transform="translate(-548.24 -802.24)"/><path class="2a18c0bd-f0d5-49e6-ae21-5d271ca6b2b9" d="M774.32,816.89a72.41,72.41,0,0,1,38.31,9.57c0.27,0.16.56,0.3,0.84,0.45a8.26,8.26,0,0,1,2.71,1.17,94.19,94.19,0,0,1,9.43,7.13,71.6,71.6,0,0,1,8.49,8.87,78.62,78.62,0,0,1,8.53,12.23,9.28,9.28,0,0,1,.75,1.49,55,55,0,0,1,3.54,6.79A113.55,113.55,0,0,1,853,880.83c0.26,0.88.35,1.8,0.67,2.66a60.05,60.05,0,0,1,2,8.26,144.26,144.26,0,0,1,2.48,18.36c0.07,1.07.21,2.14,0.22,3.22a4.1,4.1,0,0,0,.17,2.25c0.17,0.87-.17,1.75.06,2.62,0,1.59.17,3.19,0.16,4.76,0,3.53,0,7.08-.35,10.61-0.12,1.39-.16,2.78-0.23,4.17-0.17,3.58-.57,7.13-0.83,10.7a5.29,5.29,0,0,0-.22,1.61,6.14,6.14,0,0,1-.08,1.2,3.39,3.39,0,0,0-.16,1.5,7.07,7.07,0,0,1-.08,1.36,3.76,3.76,0,0,0-.16,1.29,5.47,5.47,0,0,1-.09,1.14,3.53,3.53,0,0,0-.15,1.28,5.66,5.66,0,0,1-.09,1.15,3.79,3.79,0,0,0-.14,1.33c-0.14,1.69-.4,3.36-0.55,5.05a4.6,4.6,0,0,0-.19,1.35c-0.07.92-.23,1.82-0.38,2.72-0.47,3.6-1,7.19-1.55,10.78a216,216,0,0,1-8.21,34.34,71.92,71.92,0,0,1-10.58,20.73c-4.51,5.9-9.39,11.52-14.16,17.21-0.74.89-1.45,1.81-2.14,2.73-2,1.42-3.41,3.45-5.18,5.12a37.44,37.44,0,0,1-12.33,8.29,24.67,24.67,0,0,1-8.76,1.71q-8.08,0-16.17,0c-0.66,0-1.5.24-1.79-.74q0-125.76,0-251.52A2.18,2.18,0,0,1,774.32,816.89Z" transform="translate(-548.24 -802.24)"/><path class="2237b945-3ef5-48e1-9879-246cb5bcf573" d="M923.36,900.64a21.2,21.2,0,0,1,3.83,2.41q11.9,8.13,23.77,16.31c0.52,0.71.05,1.29-.28,1.87Q945.87,929.6,941,938q-20.52,35.58-41.06,71.14-14.26,24.72-28.55,49.43a12.46,12.46,0,0,1-1,1.88c-1.16.65-2.48,0.55-3.73,0.74a78.43,78.43,0,0,0-37,15.82,4.69,4.69,0,0,1-2.44,1.43,1.37,1.37,0,0,1-.9-0.93c-0.89-1.89-1.93-3.74-2-5.91,2.36-3.89,4.6-7.86,6.88-11.8q14.6-25.29,29.2-50.57,12.71-22,25.42-44l25.66-44.45c3.64-6.3,7.3-12.59,10.91-18.91A1.88,1.88,0,0,1,923.36,900.64Z" transform="translate(-548.24 -802.24)"/><path class="e78122ee-1374-4655-8e10-bf5afcfc4d59" d="M870.32,1060.19c-0.07-1.19.76-2,1.28-2.91q7.47-13,15-26,8.28-14.3,16.56-28.6,9.28-16.08,18.51-32.18T940.4,938.1q5.1-8.81,10.22-17.61a2.06,2.06,0,0,0,.35-1.13q7.55,5.15,15.1,10.29a3.82,3.82,0,0,0,1.76,1,64.05,64.05,0,0,1,3.38,7.71,56.71,56.71,0,0,0,2.26,5.51,10.24,10.24,0,0,0,.77,2,2.91,2.91,0,0,1-.58,1.67q-10.55,18.28-21.11,36.56-10.06,17.45-20.14,34.89-12.72,22-25.44,44c-0.45.78-.79,1.7-1.84,1.92a4.56,4.56,0,0,1-2-.42,70.6,70.6,0,0,0-16.63-3.69,93,93,0,0,0-14.8-.15A1.29,1.29,0,0,1,870.32,1060.19Z" transform="translate(-548.24 -802.24)"/><path class="e98dacbd-e37a-49bd-aec1-859fec23dd03" d="M923.36,900.64a76.52,76.52,0,0,1-4.29,7.74c-3.43,6-6.93,12-10.4,18.05l-9.29,16.07-10.41,18-9,15.66L870.22,993q-8.34,14.41-16.67,28.81-8.77,15.19-17.5,30.41l-10.77,18.67a1,1,0,0,1-.81.63,1,1,0,0,1-.92-0.93c-1.87-4.69-3.58-9.44-5.41-14.14a1.61,1.61,0,0,1,.06-1.49,3.57,3.57,0,0,1,1-1.62c4.91-5.79,9.85-11.57,14.54-17.54,5.88-7.49,9.58-16.09,12.35-25.12a239.75,239.75,0,0,0,8-37.08c0.19-1.38.44-2.75,0.66-4.13a0.63,0.63,0,0,0,.44-0.37c6.63-11.64,13.37-23.21,20.06-34.82q13.21-22.91,26.45-45.81c0.39-.67.65-1.5,1.55-1.73,2.91,2,5.83,3.89,8.72,5.88C915.74,895.27,919.54,898,923.36,900.64Z" transform="translate(-548.24 -802.24)"/><path class="1213f7a3-8ab2-42c1-b879-a0d1c677df4a" d="M903.19,886.74q-5.55,9.58-11.1,19.17-5.18,9-10.34,18-4.64,8-9.3,16.06-5.18,9-10.35,17.95c-2.17,3.77-4.33,7.55-6.54,11.3-0.12.21-.26,1.2-0.88,0.3a10,10,0,0,1,.31-2.83,7.73,7.73,0,0,1,.19-1.2,32,32,0,0,1,.54-5.28,6,6,0,0,1,.18-1.2l0.07-1.2a5.19,5.19,0,0,1,.17-1.2l0.06-1.2a10.89,10.89,0,0,1,.16-1.26l0.08-1.38a8.57,8.57,0,0,1,.18-1.44l0-1.19c0.2-.48-0.06-1,0.18-1.48q0.39-5.31.78-10.61a150.51,150.51,0,0,0,.48-18.75c0-.36,0-0.72,0-1.08A107.47,107.47,0,0,1,863.78,908q9.54-16.62,19.15-33.19a3.21,3.21,0,0,1,1.06-1.27l18.19,12.56C902.51,886.33,902.85,886.53,903.19,886.74Z" transform="translate(-548.24 -802.24)"/><path class="8bb7a84d-f5ce-4c06-b0be-565465b4a15c" d="M884,873.55a45.75,45.75,0,0,1-3.56,6.5c-3.45,6.08-7,12.11-10.46,18.16-3.1,5.36-6.18,10.72-9.32,16.05-0.78,1.33-1.26,2.86-2.52,3.89l-0.07-2.6c-0.28-.71,0-1.47-0.18-2.18a159.78,159.78,0,0,0-4.67-30c1-2.13,2.29-4.12,3.46-6.16,2.75-4.78,5.49-9.57,8.27-14.33a2.25,2.25,0,0,1,1.28-1.35c2.93,1.69,5.62,3.74,8.42,5.64C877.78,869.29,880.88,871.42,884,873.55Z" transform="translate(-548.24 -802.24)"/><path class="cd43420c-69f4-4a82-8ed0-19af398528ce" d="M866.23,861.54l-8.64,15c-1.09,1.9-2.17,3.8-3.27,5.69a1.86,1.86,0,0,1-1.11,1.17A116.4,116.4,0,0,0,843,857.92c1.52-2.61,3.09-5.19,4.55-7.83a3.13,3.13,0,0,1,.87-0.79l16.75,11.39A12.87,12.87,0,0,1,866.23,861.54Z" transform="translate(-548.24 -802.24)"/><path class="118c7bda-72db-4ae9-88e4-79e54886ffc5" d="M848.48,849.3c-1.38,2.77-3,5.4-4.59,8.06a0.89,0.89,0,0,1-.84.56c-1.33-2.18-2.63-4.37-4-6.52-1.59-2.5-3.49-4.76-5.28-7.12a6.36,6.36,0,0,1,2-3.61c3,1.74,5.66,3.84,8.51,5.73C845.69,847.34,847.08,848.33,848.48,849.3Z" transform="translate(-548.24 -802.24)"/><path class="144ef4c6-6446-48ea-8a47-fb46a5e449ea" d="M774.32,816.89q0,126,0,252c0,0.32,0,.64,0,1a0.2,0.2,0,0,1-.27,0c0-.32,0-0.64,0-1q0-126,0-252h0.24Z" transform="translate(-548.24 -802.24)"/><path class="034ea410-0af9-4776-b736-110217ea8f18" d="M835.76,840.67a10.91,10.91,0,0,1-2,3.61c-1.73-1.92-3.38-3.92-5.21-5.73A80.93,80.93,0,0,0,815.19,828c-0.57-.36-1.15-0.71-1.73-1.06a6.09,6.09,0,0,1,4,1.15c5.78,4,11.53,8,17.29,12C835.08,840.25,835.42,840.46,835.76,840.67Z" transform="translate(-548.24 -802.24)"/><path class="3a416628-f065-4674-aa24-2019a483c02a" d="M870.32,1060.19a94.05,94.05,0,0,1,11.94-.22,77.54,77.54,0,0,1,22.25,4.42,7.22,7.22,0,0,0,.8.19,4.16,4.16,0,0,1,1.5.15,78.47,78.47,0,0,1,23.25,14A80.29,80.29,0,0,1,947.52,1100a91.59,91.59,0,0,1,4.49,9.25,76.34,76.34,0,0,1,4.7,16.54,54.76,54.76,0,0,1,1,9.86,5.08,5.08,0,0,1-.27,2,84.19,84.19,0,0,1-4.14,26.62,79.43,79.43,0,0,1-65.23,53.64,94.94,94.94,0,0,1-13.88.52c-1.3.72-2.68,0.32-4,.19a79.52,79.52,0,0,1-24.25-6.32A78.35,78.35,0,0,1,825.21,1199a79.69,79.69,0,0,1-17-21.2,77.47,77.47,0,0,1-9.29-28.3,79.49,79.49,0,0,1,19.78-63.68c2.29-2.52,4.92-4.67,7.26-7.13a1.48,1.48,0,0,1,1.19-.46,91.05,91.05,0,0,1,13.08-8.82A80,80,0,0,1,870.32,1060.19Z" transform="translate(-548.24 -802.24)"/><path class="37ed1bae-c2d7-45f2-92d7-5f76e4af328c" d="M827.13,1078.23c-2.1,2-4.29,3.83-6.27,5.92A79.2,79.2,0,0,0,800,1125.07a80,80,0,0,0-1.09,19.22,77,77,0,0,0,6.71,27.19,79.41,79.41,0,0,0,68.61,46.92,65.33,65.33,0,0,1-7.43,4.07,219.68,219.68,0,0,1-50,18.16,205.36,205.36,0,0,1-20.75,3.73c-5,.63-10,1.27-15.09,1.42-1,.27-2.13-0.06-3.18.19a15,15,0,0,1-2.46.16c-1.5,0-3-.11-4.5.08h-1.21c0.28-4.49.31-9,.68-13.49,0.25-3,.3-6.05.53-9.07,0.26-3.57.71-7.13,0.89-10.71,0.19-3.9.81-7.77,0.79-11.68,0-5.66.53-11.3,0.92-16.95,0.21-3,.3-6.05.52-9.07,0.47-6.57.69-13.14,0.72-19.72a1.42,1.42,0,0,0,.11-0.82q0-12.12,0-24.25a1.54,1.54,0,0,0-.1-0.82,7.9,7.9,0,0,0,.21-1.16c0.1-2.94.1-5.88,0.18-8.82,0.15-5.32.48-10.65,0.32-16a15.41,15.41,0,0,0,.1-3.2c0-3.42,0-6.85,0-10.27a1,1,0,0,1,1.29-.53,79.66,79.66,0,0,0,9.21.32c4.36,0.06,8.68-.35,13-0.67a60.51,60.51,0,0,0,10.89-1.47,29.5,29.5,0,0,0,13.07-7.2,34.26,34.26,0,0,0,2.26-2.63c0.36-.42.67-1.07,1.44-0.72Z" transform="translate(-548.24 -802.24)"/><path class="893b0ac8-cce7-4a62-9342-a94be1c4ff9e" d="M929.8,1079a95.92,95.92,0,0,0-12.42-8.7,102.62,102.62,0,0,0-12.08-5.69,61.5,61.5,0,0,0,4.16-6.84c3-5,5.9-10.14,8.83-15.23,3.09-5.36,6.16-10.73,9.25-16.09q8.8-15.24,17.62-30.47,8-13.79,15.87-27.61,6.21-10.79,12.46-21.56a8.81,8.81,0,0,1,.73-0.95,86.77,86.77,0,0,1,3.58,9.89,223.68,223.68,0,0,1,6.92,27c0.07,0.35.07,0.71,0.1,1.07a2.8,2.8,0,0,1-.57,2q-10.27,17.75-20.51,35.52L941,1060.73q-5,8.67-10,17.35C930.75,1078.54,930.55,1079.15,929.8,1079Z" transform="translate(-548.24 -802.24)"/><path class="3694182d-ecd6-4d3b-8331-674f58019204" d="M929.8,1079a22.09,22.09,0,0,0,2.66-4.36c5.55-9.55,11-19.15,16.56-28.71,4.87-8.43,9.78-16.83,14.65-25.26,4.29-7.42,8.55-14.87,12.84-22.29,2.67-4.63,5.38-9.24,8.06-13.86a4.67,4.67,0,0,0,.26-0.66c0.78,3.21,1.16,6.49,1.64,9.75,0.74,5.09,1.24,10.21,1.59,15.34,0.22,3.23.29,6.46,0.44,9.69a196,196,0,0,1-.38,20,92.54,92.54,0,0,1-1,10.12c-1.36,2.81-3.05,5.43-4.61,8.13q-12,20.83-24,41.64c-1.82,3.15-3.63,6.3-5.47,9.44-0.35.59-.6,1.36-1.54,1.26a81.61,81.61,0,0,0-13.16-21.53A107.41,107.41,0,0,0,929.8,1079Z" transform="translate(-548.24 -802.24)"/><path class="790bc620-c676-4526-aff6-eddd35d264a9" d="M951.51,1109.19c1.36-1.2,2-2.9,2.83-4.4,5.22-9,10.37-18,15.56-27q7.28-12.6,14.61-25.16c0.8-1.37,1.28-3,2.65-3.93a74.3,74.3,0,0,1-1,8.3,221.88,221.88,0,0,1-5,24.15,219.56,219.56,0,0,1-23.51,56.06c-0.08.14-.18,0.26-0.27,0.39-0.37-2.57-.33-5.17-0.64-7.75a79,79,0,0,0-5.06-20C951.64,1109.65,951.58,1109.42,951.51,1109.19Z" transform="translate(-548.24 -802.24)"/><path class="9b207163-33d9-416a-9fac-012779cbf2b3" d="M756.56,1246c1.83,0.12,3.68-.25,5.51.21A24.87,24.87,0,0,1,756.56,1246Z" transform="translate(-548.24 -802.24)"/><path class="63290b4e-60a0-4753-9f26-406f523b4473" d="M770.74,1246.2a12.92,12.92,0,0,1,4.5-.08A27.51,27.51,0,0,1,770.74,1246.2Z" transform="translate(-548.24 -802.24)"/><path class="205e3bc3-ecee-4fe7-a78b-32add1fbe8a7" d="M777.7,1246c1-.43,2.12-0.11,3.18-0.19A9,9,0,0,1,777.7,1246Z" transform="translate(-548.24 -802.24)"/><path class="f9f4f119-e05b-4e57-95f8-5cec64f758af" d="M752.17,1245.77c1,0.08,2-.23,2.94.19A7.81,7.81,0,0,1,752.17,1245.77Z" transform="translate(-548.24 -802.24)"/><path class="2224a35a-3091-4042-a232-3a2bfbedb830" d="M748.81,1245.54c0.81,0.07,1.66-.22,2.44.19A5.26,5.26,0,0,1,748.81,1245.54Z" transform="translate(-548.24 -802.24)"/><path class="0ca523c2-4893-4b73-91d3-2d0cf35f29de" d="M746,1245.29a3.89,3.89,0,0,1,1.94.2A3.49,3.49,0,0,1,746,1245.29Z" transform="translate(-548.24 -802.24)"/><path class="b7bc089f-9c51-44c1-b507-37435f085dc4" d="M741.21,1244.8a2.93,2.93,0,0,1,1.66.21A2.41,2.41,0,0,1,741.21,1244.8Z" transform="translate(-548.24 -802.24)"/><path class="eb55c067-5b32-4109-b48a-0f4510af8923" d="M743.87,1245.18a1.39,1.39,0,0,1,1.39.07Z" transform="translate(-548.24 -802.24)"/><path class="aa38927a-310f-41bc-8e31-abe141577f2a" d="M737.34,1244.33a1.7,1.7,0,0,1,1.22.21A1.53,1.53,0,0,1,737.34,1244.33Z" transform="translate(-548.24 -802.24)"/><path class="5b9a63c8-f35b-43fc-8d90-247fdd100573" d="M826.6,1077.29c-0.94.47-1.34,1.44-2,2.19-4.4,5.14-10.1,7.94-16.59,9.32-3.87.82-7.82,0.86-11.73,1.24-5.14.5-10.28,0.42-15.42,0.45-1.8,0-3.56-.34-5.34-0.47q-0.13.22-.27,0a38.5,38.5,0,0,1-25.91-13.48c-3.38-3.78-6.87-7.46-9.94-11.5-0.81-1.06-1.54-2.18-2.31-3.27l0.22-.2c1.14,0.9,2.26,1.82,3.42,2.69a28.83,28.83,0,0,0,12.54,5.08,75.46,75.46,0,0,0,15.64.67c1.71-.05,3.43-0.1,5.14-0.2h0.27c6.31,0,12.63.19,18.93,0a25.91,25.91,0,0,0,14.65-5.6,45,45,0,0,0,8.1-7.58,7.29,7.29,0,0,1,2.19-1.64c0.79,2.68,1.92,5.25,2.9,7.86,1.1,2.91,2.24,5.8,3.37,8.7Z" transform="translate(-548.24 -802.24)"/><path class="2ccd258a-27ef-4f8b-a73f-5c2fc8b20c83" d="M774.58,1129.62a1.75,1.75,0,0,1,.22,1.26q0,11.68,0,23.36a1.69,1.69,0,0,1-.23,1.26Q774.57,1142.56,774.58,1129.62Z" transform="translate(-548.24 -802.24)"/><path class="2ccd258a-27ef-4f8b-a73f-5c2fc8b20c83" d="M775.26,1090h0.27q0,6.14,0,12.27a1.9,1.9,0,0,1-.22,1.37Q775.28,1096.84,775.26,1090Z" transform="translate(-548.24 -802.24)"/><path class="1213f7a3-8ab2-42c1-b879-a0d1c677df4a" d="M857.89,913.37a5,5,0,0,1,.18,2.18A7.34,7.34,0,0,1,857.89,913.37Z" transform="translate(-548.24 -802.24)"/><path class="e98dacbd-e37a-49bd-aec1-859fec23dd03" d="M856.86,948.59a2.42,2.42,0,0,1-.18,1.48A3.47,3.47,0,0,1,856.86,948.59Z" transform="translate(-548.24 -802.24)"/><path class="e98dacbd-e37a-49bd-aec1-859fec23dd03" d="M856.63,951.26a2.56,2.56,0,0,1-.18,1.44A3,3,0,0,1,856.63,951.26Z" transform="translate(-548.24 -802.24)"/><path class="e98dacbd-e37a-49bd-aec1-859fec23dd03" d="M856.38,954.09a1.93,1.93,0,0,1-.16,1.26A2.55,2.55,0,0,1,856.38,954.09Z" transform="translate(-548.24 -802.24)"/><path class="e98dacbd-e37a-49bd-aec1-859fec23dd03" d="M856.15,956.54a2,2,0,0,1-.17,1.2A2.18,2.18,0,0,1,856.15,956.54Z" transform="translate(-548.24 -802.24)"/><path class="e98dacbd-e37a-49bd-aec1-859fec23dd03" d="M855.2,965.43a1.83,1.83,0,0,1-.19,1.2A2.27,2.27,0,0,1,855.2,965.43Z" transform="translate(-548.24 -802.24)"/><path class="e98dacbd-e37a-49bd-aec1-859fec23dd03" d="M855.91,958.94a1.91,1.91,0,0,1-.18,1.2A2.13,2.13,0,0,1,855.91,958.94Z" transform="translate(-548.24 -802.24)"/><path class="eedf8ec1-82e0-4788-bad6-b000fd68c848" d="M878.88,1093.34c9.34,0,17.29,1.91,24.23,7.09,8.69,6.49,12.57,17.35,9.74,27.28a26.58,26.58,0,0,1-7.67,12c-4,3.82-8.08,7.62-12.3,11.23-4.38,3.74-6.56,8.48-7.46,14-0.51,3.14-2.12,5.62-5.45,6.46s-6.61.35-9.15-2.32c-1.86-2-2.19-4.45-2.21-7a25.42,25.42,0,0,1,7.85-18.8c4.15-4.17,8.76-7.83,13-11.95,2.37-2.33,4.42-4.89,4.92-8.3a12.55,12.55,0,0,0-7.54-13.52,18.6,18.6,0,0,0-15.24.13c-2.37,1-3.92,3-5.29,5.07a37.68,37.68,0,0,0-4.09,9,13.26,13.26,0,0,1-2.37,4.54,8.76,8.76,0,0,1-9.72,2.42c-3.4-1.21-6.13-4.73-6.13-8.13,0-6.42,2.51-11.93,6.58-16.7a35,35,0,0,1,22.25-12A37.38,37.38,0,0,1,878.88,1093.34Z" transform="translate(-548.24 -802.24)"/><path class="eedf8ec1-82e0-4788-bad6-b000fd68c848" d="M867.32,1188.49a10.54,10.54,0,1,1,21.07.42c-0.22,6-4.53,10.1-10.91,10A10.11,10.11,0,0,1,867.32,1188.49Z" transform="translate(-548.24 -802.24)"/></svg>
