<?xml version="1.0" encoding="utf-8"?>
<!-- Generator: Adobe Illustrator 19.2.1, SVG Export Plug-In . SVG Version: 6.00 Build 0)  -->
<svg version="1.1" id="Layer_1" xmlns="http://www.w3.org/2000/svg" xmlns:xlink="http://www.w3.org/1999/xlink" x="0px" y="0px" viewBox="0 0 2134 469" style="enable-background:new 0 0 2134 469;" xml:space="preserve" width="125px">
  <style type="text/css">
    .st0{fill:#F87F2D;}
    .st1{fill:#FFFFFF;}
  </style>
  <path class="st0" d="M1853.6,26.4c160,0,270.1,19.9,270.1,102.9c0,62-100.6,104.9-105,106.8c15.8-12.3,62.6-40.8,62.6-96.9 c0-40-59.1-84.7-283.8-84.7c-256,0-466.3,44.3-467.9,44.5C1444.8,70.5,1599.6,26.4,1853.6,26.4z"/>
  <circle class="st0" cx="1751.9" cy="152.3" r="48.7"/>
  <path class="st1" d="M1919.3,156.3l121.3,0.3l-236.3,156.7L1941,433.6l-126.1,0.9l-80.9-75l-173.8,115.1h-128.6L1677.8,308 l-131.2-114.3l125.3,0.3l75,66.3L1919.3,156.3z"/>
  <path class="st1" d="M0,194l135.2-0.1l132.2,123.4L402.8,194l84.1-0.1l54.2,64.7h-82.5L265.7,446L0,194z"/>
  <path class="st1" d="M1452.6,194.2l0.1,55.2l-340.5-0.1v36.5h320.3l0.1,46.2c0,0-303.2-0.2-318.7-0.2c0,11.7,0.4,44.8,56.9,44.8 s282.1,0,282.1,0l-0.1,58.4c0,0-262.5-0.1-328-0.1c-61,0-111.4-28.7-111.4-74.5c0-50.7-0.1-166.2-0.1-166.2L1452.6,194.2z"/>
  <path class="st1" d="M525.6,193.8l453.5,0.2l0.2,64.7H811.9l-0.4,176l-109.6-0.1l-0.1-176H587.7L525.6,193.8z"/>
</svg>
